<?xml version="1.0" standalone="no"?>
<!DOCTYPE svg PUBLIC "-//W3C//DTD SVG 20010904//EN"
 "http://www.w3.org/TR/2001/REC-SVG-20010904/DTD/svg10.dtd">
<svg version="1.0" xmlns="http://www.w3.org/2000/svg"
 width="660.000000pt" height="660.000000pt" viewBox="0 0 660.000000 660.000000"
 preserveAspectRatio="xMidYMid meet">
<metadata>
Created by potrace 1.14, written by Peter Selinger 2001-2017
</metadata>
<g transform="translate(0.000000,660.000000) scale(0.100000,-0.100000)"
fill="#000000" stroke="none">
<path d="M3790 6522 c0 -24 -5 -31 -27 -38 l-28 -7 30 -7 c17 -4 53 -8 81 -9
27 0 54 -5 60 -10 5 -5 35 -11 66 -12 52 -2 60 0 84 26 l27 29 -102 22 c-56
12 -121 25 -146 29 -45 6 -45 6 -45 -23z"/>
<path d="M3225 5580 c-4 -6 -55 -10 -120 -10 -103 0 -120 -3 -170 -26 -30 -14
-52 -30 -49 -35 3 -5 0 -9 -6 -9 -17 0 -40 -26 -40 -44 0 -10 -9 -16 -24 -16
-14 0 -28 -5 -31 -10 -4 -6 -10 -8 -15 -5 -4 3 -13 -2 -20 -10 -7 -8 -18 -15
-25 -15 -8 0 -15 -3 -17 -7 -4 -11 -145 -104 -191 -127 -21 -10 -44 -27 -50
-37 -7 -11 -17 -19 -23 -19 -6 0 -29 -16 -51 -35 -23 -19 -44 -35 -48 -35 -11
0 -49 -43 -74 -83 -12 -20 -30 -39 -41 -42 -10 -3 -21 -12 -24 -20 -3 -8 -11
-15 -18 -15 -15 0 -78 -129 -78 -160 0 -12 -4 -29 -10 -39 -5 -10 -12 -61 -15
-112 -6 -90 -21 -164 -43 -205 -16 -30 -43 -139 -43 -176 0 -64 -4 -98 -11
-98 -5 0 -8 -13 -8 -30 0 -16 5 -30 11 -30 8 0 8 -4 0 -14 -12 -14 -11 -93 2
-113 10 -16 4 -283 -7 -283 -4 0 -5 -7 -2 -16 5 -12 1 -14 -17 -9 -17 5 -19 4
-7 -4 12 -9 13 -12 1 -20 -11 -7 -11 -9 0 -14 12 -5 12 -7 1 -15 -8 -5 -13
-13 -12 -18 2 -18 -29 -15 -49 5 -10 10 -22 17 -25 13 -3 -3 -6 2 -6 11 0 30
-28 43 -114 56 -47 7 -89 17 -92 22 -3 5 -2 8 3 7 4 -2 10 1 13 7 5 10 -34 20
-120 31 -30 3 -57 10 -60 14 -5 9 -80 13 -520 28 -493 18 -919 19 -929 3 -12
-19 -30 -166 -38 -309 l-6 -122 171 0 c114 0 173 -4 178 -11 4 -7 21 -9 42 -5
20 3 41 1 46 -3 12 -9 96 -15 183 -13 37 2 52 6 50 15 -2 12 6 12 65 0 17 -3
28 -1 28 6 0 6 -5 11 -11 11 -5 0 -7 5 -4 11 4 6 14 8 22 5 9 -4 66 -8 127 -9
61 -2 120 -8 131 -14 28 -14 611 -17 620 -3 4 6 -6 10 -25 10 -17 0 -42 7 -55
16 -14 9 -33 13 -44 9 -12 -3 -30 0 -41 8 -22 15 -17 27 12 27 10 0 18 5 18
10 0 16 57 12 64 -5 5 -15 43 -19 82 -9 14 4 22 14 22 27 0 24 4 41 17 71 6
13 4 21 -3 24 -27 9 -9 22 38 28 56 7 68 24 18 24 -23 0 -29 3 -19 9 11 7 11
9 0 13 -8 3 1 8 19 12 17 4 32 12 32 17 0 18 42 9 47 -11 3 -11 9 -20 14 -20
5 0 9 -12 10 -27 0 -16 3 -23 5 -17 4 8 17 9 46 2 23 -5 55 -6 72 -3 21 4 27
3 17 -3 -16 -11 -7 -47 9 -37 5 3 10 -1 10 -10 0 -14 -7 -16 -50 -10 -40 6
-58 3 -89 -14 -29 -14 -48 -18 -68 -12 -50 13 -83 -1 -83 -36 0 -19 4 -24 16
-19 9 3 22 6 30 6 7 0 11 6 8 13 -3 10 4 14 24 15 l29 1 1 -217 c2 -281 -5
-392 -24 -392 -8 0 -17 7 -20 15 -4 8 -15 15 -25 15 -12 0 -16 -5 -13 -15 4
-8 10 -12 15 -9 5 3 9 -2 9 -10 0 -11 9 -16 30 -16 23 0 30 -4 30 -20 0 -21
48 -120 65 -132 6 -4 -5 -8 -24 -8 -29 0 -33 3 -28 21 5 18 2 20 -18 15 -15
-4 -31 1 -46 14 -24 19 -24 19 -2 20 28 0 53 10 53 21 0 12 -54 11 -66 -1 -7
-7 -27 -2 -61 15 -28 13 -69 24 -90 24 -21 1 -54 1 -73 1 -19 0 -38 4 -43 9
-4 4 38 11 94 15 99 7 104 6 120 -15 l17 -22 7 22 c4 12 5 24 3 26 -2 2 -44 6
-93 9 -110 7 -275 -3 -275 -17 0 -5 16 -7 38 -4 49 8 68 -3 53 -32 -9 -16 -22
-21 -59 -23 -88 -2 -147 -6 -199 -11 -39 -4 -53 -2 -57 9 -3 8 -15 14 -26 14
-31 0 -13 20 18 21 24 0 25 1 7 9 -11 5 -14 9 -7 9 6 1 12 5 12 10 0 5 -37 9
-82 8 -129 -3 -611 15 -771 29 -69 6 -105 -6 -90 -29 4 -6 -7 -1 -24 11 -23
16 -47 22 -92 23 -34 1 -64 -1 -67 -4 -6 -6 5 -88 32 -237 50 -275 166 -602
310 -877 144 -276 299 -496 516 -730 136 -148 226 -229 241 -214 6 6 18 11 27
11 9 0 33 9 54 19 21 11 51 23 67 26 16 4 29 10 29 14 0 3 12 12 28 18 15 7
34 16 42 21 62 38 214 101 255 106 77 11 204 60 225 88 3 3 19 10 35 14 17 4
35 10 40 14 6 4 28 13 50 20 22 7 46 19 53 27 7 7 19 13 27 13 7 0 18 13 23
30 8 21 15 28 27 24 22 -9 43 12 57 57 12 41 25 50 34 24 4 -10 14 -14 28 -10
31 9 90 38 101 51 17 19 76 56 81 51 9 -8 -16 -57 -32 -64 -12 -4 -13 -8 -3
-14 20 -12 2 -23 -35 -22 -30 1 -36 -4 -56 -44 -12 -24 -23 -50 -24 -58 -1 -7
-7 -19 -13 -26 -6 -8 -14 -30 -18 -49 -4 -19 -12 -41 -17 -48 -7 -8 -7 -12 1
-12 17 0 13 -24 -7 -46 -9 -10 -16 -30 -14 -44 3 -21 2 -22 -12 -11 -13 11
-16 11 -16 -1 0 -8 5 -19 10 -24 6 -6 8 -19 4 -28 -5 -13 -9 -14 -15 -5 -4 8
-10 -5 -14 -32 -6 -38 -10 -45 -31 -47 -22 -2 -24 2 -25 46 -2 38 -4 29 -14
-43 -7 -49 -13 -75 -14 -57 0 20 -6 32 -15 32 -19 0 -31 -120 -14 -133 9 -5 5
-6 -9 -2 -18 5 -20 2 -16 -15 3 -11 1 -20 -5 -20 -6 0 -12 7 -14 16 -3 14 -6
13 -25 -4 -25 -22 -30 -37 -10 -29 10 4 13 -2 9 -19 -2 -13 -10 -24 -17 -24
-6 0 -20 -9 -30 -20 -15 -17 -26 -19 -84 -14 -36 3 -73 5 -81 4 -45 -4 -74 -1
-95 10 -19 10 -27 10 -39 1 -12 -10 -15 -9 -19 6 -4 17 -5 17 -6 1 0 -10 -5
-18 -10 -18 -5 0 -16 -3 -25 -6 -11 -4 -16 -1 -16 10 0 26 -35 18 -58 -14 -18
-24 -20 -30 -7 -30 8 0 15 -4 15 -9 0 -18 214 -143 408 -237 259 -126 600
-228 907 -273 766 -112 1518 40 2187 442 103 62 304 203 325 229 21 25 -9 47
-73 53 -41 4 -53 2 -39 -4 15 -7 3 -10 -47 -10 -37 -1 -70 -5 -73 -11 -3 -5 3
-10 14 -10 44 0 19 -20 -26 -21 -56 -2 -58 -2 -143 -13 -36 -4 -85 -13 -110
-21 -25 -7 -71 -16 -102 -20 -32 -4 -58 -11 -58 -16 0 -5 -12 -9 -27 -8 -16 0
-22 3 -13 6 8 3 28 15 44 26 24 17 26 21 12 29 -23 13 -20 25 12 44 30 17 57
52 48 61 -3 3 -14 -4 -24 -17 -11 -14 -26 -21 -41 -18 l-23 3 22 27 c12 15 19
32 15 38 -3 6 0 7 9 4 11 -4 16 0 16 10 0 9 -7 16 -15 16 -8 0 -15 8 -15 17 0
14 3 14 23 -4 24 -22 40 -20 71 9 11 10 23 18 28 18 4 0 8 6 8 13 0 8 9 22 19
31 18 17 20 16 26 -3 9 -30 -4 -64 -22 -57 -19 8 -43 -17 -43 -44 0 -17 4 -20
22 -14 25 8 50 29 42 36 -2 3 7 4 21 2 14 -2 36 -6 48 -7 13 -2 29 -7 35 -11
16 -10 91 16 96 34 2 8 4 4 5 -9 1 -16 5 -21 16 -17 8 3 40 0 70 -6 56 -11 81
-5 55 13 -11 8 -10 9 8 4 14 -4 22 -2 22 5 0 7 -9 14 -20 17 -11 3 -20 10 -20
15 0 15 -102 132 -142 163 -7 6 -28 22 -46 38 -37 30 -92 37 -92 12 0 -9 -11
-21 -25 -27 -16 -7 -25 -19 -25 -34 0 -17 -7 -25 -24 -30 -29 -7 -46 1 -46 23
0 12 -7 14 -34 9 -27 -5 -37 -3 -44 10 -6 12 -18 15 -36 12 -14 -3 -26 -1 -26
5 0 5 -6 4 -14 -2 -11 -9 -15 -9 -19 1 -4 10 -9 9 -19 -3 -12 -15 -16 -15 -33
-3 -10 8 -15 14 -11 14 5 0 3 6 -3 14 -8 10 -9 16 -1 21 5 3 10 -1 10 -9 0 -9
5 -16 10 -16 6 0 10 6 10 14 0 7 9 24 19 38 20 25 26 63 22 128 -1 24 -9 41
-27 53 -32 24 -40 16 -19 -17 10 -14 14 -33 11 -42 -5 -13 -11 -12 -37 10 -17
14 -39 26 -49 26 -27 0 -33 38 -6 43 16 3 15 5 -7 6 -20 1 -30 8 -37 27 -6 14
-16 32 -24 40 -8 7 -17 19 -19 26 -4 10 -8 9 -17 -2 -10 -13 -11 -13 -6 2 3
10 -1 21 -9 25 -7 5 -17 22 -21 38 -7 28 -6 29 12 16 48 -37 114 -107 114
-122 0 -18 27 -29 74 -29 42 0 112 -37 137 -71 11 -16 29 -29 40 -29 11 0 22
-6 25 -14 3 -7 31 -19 62 -27 60 -14 142 -54 142 -70 0 -5 6 -9 14 -9 8 0 21
-6 28 -13 7 -7 20 -16 28 -20 8 -4 35 -21 60 -37 46 -30 184 -100 198 -100 11
0 157 -74 160 -82 2 -4 19 -12 39 -19 l35 -11 75 73 c199 197 404 463 556 724
96 167 213 434 271 624 20 65 20 71 1 71 -8 0 -15 5 -15 10 0 6 9 10 20 10 24
0 40 35 45 97 2 24 7 47 10 53 7 11 -25 13 -41 2 -6 -4 -14 -15 -17 -26 -7
-17 -8 -17 -25 3 -16 20 -27 21 -194 22 -98 0 -182 -2 -187 -5 -10 -6 -112
-17 -151 -16 -14 0 -26 5 -28 10 -2 6 -10 10 -18 10 -26 0 -27 29 -3 50 13 10
30 19 37 20 10 0 12 9 7 33 -13 64 -15 67 -48 66 -18 0 -26 -3 -19 -6 6 -2 12
-9 12 -14 0 -18 -27 -9 -60 21 -18 16 -36 27 -41 25 -4 -3 -14 -25 -22 -49
-17 -50 -11 -61 33 -69 75 -12 79 -37 7 -37 -40 0 -60 -5 -77 -20 -29 -25 -56
-25 -77 0 -10 11 -21 20 -26 20 -18 0 -108 102 -103 116 4 11 10 12 25 4 24
-12 94 -14 87 -1 -3 4 6 6 19 3 15 -2 34 4 51 17 15 12 38 21 51 21 15 0 23 5
21 13 -7 19 -93 21 -121 3 -19 -13 -29 -14 -55 -4 -27 10 -36 10 -61 -5 -16
-9 -43 -17 -59 -17 -24 0 -33 -6 -44 -30 -17 -39 -36 -46 -48 -16 -5 14 -18
27 -29 31 -20 6 -74 -16 -86 -35 -3 -5 -15 -10 -26 -10 -13 0 -19 -7 -19 -23
0 -20 -4 -23 -36 -19 -34 4 -34 5 -14 19 25 17 18 33 -15 33 -15 0 -31 -10
-41 -25 -13 -21 -25 -25 -63 -26 -87 -1 -124 -12 -126 -37 -1 -12 -5 -25 -8
-28 -4 -4 -54 -1 -111 5 -58 7 -113 10 -124 7 -11 -4 -32 -1 -48 5 -27 10 -28
12 -9 19 24 10 14 13 -37 10 -28 -1 -38 2 -38 14 0 8 8 17 18 20 25 9 77 58
86 81 4 11 7 83 7 159 0 77 3 144 8 150 26 32 31 95 15 201 -8 59 -13 113 -10
121 9 23 -31 92 -62 108 -15 7 -42 17 -60 21 -32 7 -33 7 -27 53 3 26 10 74
15 107 6 33 10 97 9 142 0 57 5 93 16 117 13 26 15 46 9 78 -7 40 -7 107 1
188 7 75 -47 350 -77 387 -6 7 -11 27 -13 45 -2 18 -11 47 -19 64 -9 17 -17
50 -18 73 -1 27 -6 41 -15 41 -7 0 -13 9 -13 19 0 13 -18 31 -53 52 -43 25
-58 42 -80 88 -14 31 -29 76 -33 101 -4 25 -17 59 -29 75 -12 17 -26 45 -30
63 -4 18 -13 36 -21 39 -8 3 -14 11 -14 18 0 6 -22 38 -50 69 -27 31 -50 52
-50 47 0 -6 -7 -11 -16 -11 -13 0 -14 3 -4 15 10 11 8 19 -7 37 -14 19 -26 22
-60 20 -32 -2 -47 2 -62 17 -12 12 -21 25 -21 30 0 10 -14 15 -70 26 -19 4
-39 11 -45 15 -10 7 -63 19 -113 25 -13 2 -42 12 -65 23 -31 14 -65 20 -127
20 -47 1 -101 6 -120 12 -44 13 -57 13 -65 0z m703 -346 c-3 -14 -7 -10 -16
16 -12 32 -11 34 4 19 9 -9 14 -25 12 -35z m199 -146 c-3 -8 -6 -5 -6 6 -1 11
2 17 5 13 3 -3 4 -12 1 -19z m133 -620 c0 -16 -3 -19 -11 -11 -6 6 -8 16 -5
22 11 17 16 13 16 -11z m39 -18 c6 -18 6 -30 0 -30 -5 0 -9 7 -9 15 0 8 -4 15
-10 15 -5 0 -10 7 -10 15 0 26 18 16 29 -15z m13 -75 c3 -14 1 -25 -3 -25 -5
0 -9 11 -9 25 0 14 2 25 4 25 2 0 6 -11 8 -25z m100 -693 c2 -34 0 -62 -4 -62
-5 0 -7 42 -6 93 1 94 5 82 10 -31z m-2422 -57 c0 -8 -4 -15 -10 -15 -5 0 -10
7 -10 15 0 8 5 15 10 15 6 0 10 -7 10 -15z m2439 -122 c-1 -86 -3 -100 -10
-68 -12 60 -8 175 7 175 2 0 3 -48 3 -107z m-2793 39 c14 -8 15 -60 3 -68 -5
-3 -18 -2 -30 1 -16 5 -18 10 -8 21 6 7 9 20 6 28 -9 23 7 33 29 18z m2801
-249 c-2 -16 -4 -5 -4 22 0 28 2 40 4 28 2 -13 2 -35 0 -50z m3 -98 c0 -36 -3
-65 -7 -65 -5 0 -6 29 -5 65 2 36 6 65 8 65 2 0 4 -29 4 -65z m-10 -151 c0
-14 -4 -23 -10 -19 -5 3 -10 15 -10 26 0 10 5 19 10 19 6 0 10 -12 10 -26z
m-23 -116 c-3 -8 -6 -5 -6 6 -1 11 2 17 5 13 3 -3 4 -12 1 -19z m-4097 -68 c0
-5 -7 -7 -15 -4 -8 4 -15 8 -15 10 0 2 7 4 15 4 8 0 15 -4 15 -10z m127 4 c-3
-3 -12 -4 -19 -1 -8 3 -5 6 6 6 11 1 17 -2 13 -5z m303 -43 c0 -5 10 -12 23
-14 12 -2 -3 -5 -33 -5 -52 -2 -54 -1 -30 12 31 17 40 19 40 7z m333 -26 c-4
-15 -56 -12 -61 3 -3 10 5 13 29 10 19 -2 33 -7 32 -13z m611 -21 c9 -3 16
-12 16 -19 0 -7 15 -17 33 -20 17 -4 40 -13 50 -20 15 -11 16 -13 3 -18 -9 -4
-13 -13 -10 -22 7 -16 3 -18 -19 -9 -9 3 -13 13 -10 25 4 14 0 19 -15 19 -11
0 -22 3 -24 8 -5 11 -64 42 -81 42 -9 0 -19 5 -22 10 -7 11 53 14 79 4z
m-1071 -24 c-3 -11 -9 -20 -13 -20 -5 0 -6 9 -3 20 3 11 9 20 13 20 5 0 6 -9
3 -20z m803 -38 c-18 -16 -18 -16 -6 6 6 13 14 21 18 18 3 -4 -2 -14 -12 -24z
m242 10 c2 -7 -3 -12 -12 -12 -9 0 -16 7 -16 16 0 17 22 14 28 -4z m-78 -2 c0
-5 -4 -10 -10 -10 -5 0 -10 5 -10 10 0 6 5 10 10 10 6 0 10 -4 10 -10z m-780
-44 c0 -9 -30 -14 -35 -6 -4 6 3 10 14 10 12 0 21 -2 21 -4z m880 -6 c0 -5 -7
-10 -15 -10 -8 0 -15 5 -15 10 0 6 7 10 15 10 8 0 15 -4 15 -10z m-970 -15 c0
-8 -9 -15 -20 -15 -25 0 -26 17 -2 23 9 3 18 5 20 6 1 0 2 -6 2 -14z m1200 5
c0 -5 -7 -10 -15 -10 -8 0 -15 5 -15 10 0 6 7 10 15 10 8 0 15 -4 15 -10z
m-259 -31 c5 -11 6 -19 0 -19 -5 0 -12 7 -15 15 -3 9 -11 15 -18 14 -29 -3
-59 2 -54 9 9 15 76 0 87 -19z m427 14 c-16 -2 -40 -2 -55 0 -16 2 -3 4 27 4
30 0 43 -2 28 -4z m-851 -9 c-3 -3 -12 -4 -19 -1 -8 3 -5 6 6 6 11 1 17 -2 13
-5z m91 -1 c-10 -2 -26 -2 -35 0 -10 3 -2 5 17 5 19 0 27 -2 18 -5z m4100 -5
c-7 -20 -58 -23 -58 -4 0 11 10 16 31 16 20 0 29 -4 27 -12z m-3620 -26 c-24
-3 -28 -8 -28 -33 0 -16 -4 -29 -9 -29 -16 0 -24 40 -11 55 13 15 49 24 65 16
6 -4 -2 -7 -17 -9z m172 -12 c0 -5 -7 -10 -15 -10 -8 0 -15 5 -15 10 0 6 7 10
15 10 8 0 15 -4 15 -10z m3377 -3 c12 -7 22 -16 22 -22 0 -5 19 -15 41 -20 23
-6 38 -13 34 -18 -13 -12 -80 -8 -119 8 -20 9 -45 13 -55 10 -22 -7 -33 8 -25
35 5 15 15 20 43 20 20 -1 47 -6 59 -13z m-3537 -23 c0 -8 -5 -12 -10 -9 -6 4
-8 11 -5 16 9 14 15 11 15 -7z m60 7 c0 -5 -9 -7 -20 -4 -11 3 -20 7 -20 9 0
2 9 4 20 4 11 0 20 -4 20 -9z m237 -38 c-3 -10 -5 -4 -5 12 0 17 2 24 5 18 2
-7 2 -21 0 -30z m2643 7 c0 -5 -4 -10 -9 -10 -6 0 -13 5 -16 10 -3 6 1 10 9
10 9 0 16 -4 16 -10z m470 0 c0 -11 -10 -13 -56 -10 -18 1 -35 -3 -39 -9 -3
-6 -17 -11 -30 -11 -13 0 -28 -6 -32 -14 -13 -24 -73 -25 -73 -2 0 8 -12 24
-26 35 l-26 20 141 0 c85 0 141 -3 141 -9z m570 -4 c0 -2 -7 -6 -15 -10 -8 -3
-15 -1 -15 4 0 6 7 10 15 10 8 0 15 -2 15 -4z m-3872 -43 c5 -17 -27 -16 -58
2 -25 15 -25 15 14 13 22 -2 41 -9 44 -15z m2941 6 c17 -6 31 -14 31 -18 0
-15 51 -31 97 -31 46 0 46 0 27 -21 -13 -14 -26 -19 -44 -15 -62 14 -193 27
-277 26 -76 0 -93 3 -93 15 0 8 6 15 13 15 9 0 9 2 0 8 -7 4 35 8 94 7 76 0
107 4 110 13 6 15 3 14 42 1z m727 -4 c-11 -8 -29 -15 -40 -15 -36 0 7 25 49
29 6 0 1 -6 -9 -14z m-1048 -11 c3 -12 -110 -12 -115 1 -2 6 20 10 54 9 32 0
59 -4 61 -10z m1122 1 c0 -9 -6 -12 -15 -9 -8 4 -15 10 -15 15 0 5 7 9 15 9 8
0 15 -7 15 -15z m-272 -12 c-10 -2 -26 -2 -35 0 -10 3 -2 5 17 5 19 0 27 -2
18 -5z m907 -4 c12 -18 -3 -22 -20 -5 -14 14 -14 16 -1 16 8 0 18 -5 21 -11z
m-1005 -7 c0 -4 -5 -13 -11 -19 -8 -8 -6 -13 8 -17 21 -7 98 -15 147 -16 24 0
27 -2 16 -15 -15 -18 -57 -20 -63 -2 -3 8 -10 7 -26 -7 -17 -16 -26 -17 -45
-8 -13 6 -45 14 -72 17 -27 4 -62 14 -78 22 -15 8 -38 12 -50 9 -13 -3 -31 1
-42 9 -17 13 -13 14 48 15 37 0 70 5 73 10 7 12 95 14 95 2z m704 -1 c11 -18
-20 -41 -56 -43 -37 -1 -38 -1 -15 -17 24 -17 27 -17 74 5 37 17 48 30 33 39
-20 12 -10 25 20 25 26 0 30 -3 30 -29 0 -31 -14 -41 -61 -41 -19 0 -29 -5
-29 -15 0 -21 -88 -20 -119 1 -30 21 -131 15 -156 -9 -17 -18 -39 -17 -145 1
l-45 8 60 8 c33 5 65 11 70 15 6 3 39 11 75 17 36 7 88 19 115 27 56 16 141
21 149 8z m224 -20 c3 -8 -3 -12 -14 -10 -11 1 -27 -1 -36 -6 -10 -4 -25 -5
-33 -1 -27 10 -16 25 23 29 48 5 55 3 60 -12z m-1628 -57 c0 -2 -9 -4 -21 -4
-11 0 -18 4 -14 10 5 8 35 3 35 -6z m476 1 c4 -8 12 -15 20 -15 19 0 18 -16
-2 -24 -22 -9 -39 -8 -70 4 -26 10 -27 11 -8 30 23 23 53 25 60 5z m-322 -1
c9 -3 16 -13 16 -20 0 -8 7 -17 15 -20 8 -4 15 -12 15 -20 0 -8 9 -13 22 -11
14 1 23 -4 26 -16 3 -15 -3 -16 -40 -13 -24 3 -49 5 -56 5 -7 1 -17 13 -22 27
-6 14 -19 28 -31 31 -19 5 -19 6 -2 24 19 19 33 22 57 13z m1474 -15 c-19 -13
-28 -11 -28 5 0 9 7 12 21 9 16 -4 17 -8 7 -14z m135 -25 c11 -11 -3 -24 -18
-18 -8 4 -12 10 -9 15 6 11 18 12 27 3z m-1393 -20 c0 -9 -8 -23 -17 -30 -21
-15 -43 -1 -43 27 0 14 7 19 30 19 21 0 30 -5 30 -16z m897 -6 c-3 -8 -6 -5
-6 6 -1 11 2 17 5 13 3 -3 4 -12 1 -19z m-387 -14 c0 -17 -22 -14 -28 4 -2 7
3 12 12 12 9 0 16 -7 16 -16z m-170 -4 c0 -6 -4 -10 -9 -10 -5 0 -16 -3 -25
-6 -10 -4 -16 -1 -16 8 0 7 11 15 25 16 14 1 25 -3 25 -8z m734 -49 c3 -5 -1
-11 -9 -15 -9 -3 -15 0 -15 9 0 16 16 20 24 6z m-1590 -146 c16 -9 31 -13 34
-10 3 3 15 -1 26 -9 12 -7 52 -16 89 -20 69 -8 97 -27 66 -47 -34 -21 -169 8
-169 37 0 8 -7 14 -15 14 -8 0 -15 -6 -15 -14 0 -16 -27 -29 -41 -20 -5 3 -9
14 -9 26 0 18 -4 20 -47 14 -27 -3 -42 -3 -35 0 6 3 12 14 12 25 0 15 7 19 38
19 20 0 50 -7 66 -15z m-74 -110 c0 -20 -5 -25 -22 -24 -17 1 -19 2 -5 6 9 2
17 13 17 24 0 10 2 19 5 19 3 0 5 -11 5 -25z m357 19 c-3 -3 -12 -4 -19 -1 -8
3 -5 6 6 6 11 1 17 -2 13 -5z m243 -4 c0 -5 -9 -10 -21 -10 -11 0 -17 5 -14
10 3 6 13 10 21 10 8 0 14 -4 14 -10z m290 0 c0 -5 7 -7 15 -4 9 4 15 0 15
-10 0 -9 -8 -16 -20 -16 -11 0 -20 5 -20 10 0 6 -19 11 -42 11 -40 1 -41 2
-13 9 44 11 65 11 65 0z m130 -20 c0 -5 -18 -10 -41 -10 -24 0 -38 4 -34 10 3
6 22 10 41 10 19 0 34 -4 34 -10z m-1040 -431 c0 -5 -4 -9 -10 -9 -5 0 -10 7
-10 16 0 8 5 12 10 9 6 -3 10 -10 10 -16z m-2424 -137 c-16 -2 -35 3 -43 11
-13 13 -10 13 28 3 40 -10 41 -11 15 -14z m121 -24 c-3 -8 -6 -5 -6 6 -1 11 2
17 5 13 3 -3 4 -12 1 -19z m103 1 c0 -5 -9 -9 -20 -9 -22 0 -27 16 -7 23 15 5
27 -1 27 -14z m200 -82 c-27 -15 -36 -14 -25 2 3 6 16 11 28 11 21 0 21 -1 -3
-13z m-40 -52 c0 -8 -4 -15 -10 -15 -5 0 -7 7 -4 15 4 8 8 15 10 15 2 0 4 -7
4 -15z m2220 4 c0 -8 5 -8 15 1 12 10 15 9 15 -4 0 -12 -7 -16 -22 -14 -22 3
-39 28 -19 28 6 0 11 -5 11 -11z m40 -91 c0 -17 -1 -17 -20 -1 -11 10 -20 18
-20 18 0 0 9 1 20 1 12 0 20 -7 20 -18z m397 -108 c4 -13 3 -13 -6 0 -9 13
-11 12 -11 -3 0 -10 -4 -15 -10 -12 -5 3 -10 -3 -10 -14 0 -11 -7 -26 -15 -35
-18 -18 -20 -43 -2 -49 9 -3 9 -8 1 -16 -8 -9 -17 -7 -34 7 l-24 19 22 28 c12
15 22 34 22 41 0 8 5 14 10 14 6 0 10 9 10 21 0 15 5 20 22 17 12 -2 23 -10
25 -18z m-117 -84 c0 -2 -7 -6 -15 -10 -8 -3 -15 -1 -15 4 0 6 7 10 15 10 8 0
15 -2 15 -4z m-46 -39 c-7 -20 -54 -51 -62 -41 -4 4 0 9 8 12 8 3 23 15 35 28
22 25 29 25 19 1z m119 -71 c4 -10 1 -13 -9 -9 -7 3 -14 9 -14 14 0 14 17 10
23 -5z m-2776 -38 c-3 -8 -6 -5 -6 6 -1 11 2 17 5 13 3 -3 4 -12 1 -19z m2513
-33 c0 -8 -9 -15 -20 -15 -17 0 -19 2 -8 15 17 19 28 19 28 0z m-10 -49 c0 -3
-4 -8 -10 -11 -5 -3 -10 -1 -10 4 0 6 5 11 10 11 6 0 10 -2 10 -4z m17 -72
c-3 -3 -12 -4 -19 -1 -8 3 -5 6 6 6 11 1 17 -2 13 -5z m-3142 -104 c-3 -5 -10
-10 -16 -10 -5 0 -9 5 -9 10 0 6 7 10 16 10 8 0 12 -4 9 -10z m390 -20 c3 -5
1 -10 -4 -10 -6 0 -11 5 -11 10 0 6 2 10 4 10 3 0 8 -4 11 -10z m-85 -150 c0
-5 -7 -10 -15 -10 -8 0 -15 5 -15 10 0 6 7 10 15 10 8 0 15 -4 15 -10z"/>
<path d="M5088 3750 c-80 -3 -150 -8 -154 -12 -4 -5 -2 -8 4 -8 19 0 -7 -57
-29 -63 -12 -3 -19 0 -19 9 0 8 -4 14 -10 14 -5 0 -10 7 -10 15 0 9 -9 15 -25
15 -14 0 -25 -4 -25 -9 0 -5 -13 -12 -30 -16 -21 -5 -30 -13 -30 -26 0 -20 2
-20 80 -23 54 -1 62 -25 13 -38 -37 -10 -44 -33 -13 -43 22 -7 26 -20 10 -30
-19 -12 -10 -23 26 -30 40 -7 37 -19 -4 -22 -145 -10 -178 -38 -46 -38 44 -1
85 -4 92 -9 6 -4 12 -20 12 -37 0 -33 2 -34 33 -15 12 8 33 16 47 18 14 2 30
7 37 11 16 10 135 -22 148 -40 7 -10 19 -12 37 -8 34 9 46 35 16 35 -16 0 -19
3 -11 11 16 16 44 4 50 -21 6 -23 33 -27 33 -6 0 17 21 24 69 24 25 1 31 -2
22 -11 -17 -17 -13 -25 17 -30 19 -3 15 -4 -15 -6 -87 -3 -103 -31 -17 -31 45
0 55 -3 51 -14 -9 -22 11 -25 183 -31 138 -5 307 -20 272 -24 -7 0 -10 -5 -7
-11 10 -17 125 -13 131 5 3 8 16 14 27 13 50 -2 181 13 194 23 7 6 13 18 13
25 0 8 7 14 16 14 14 0 15 -2 3 -17 -13 -15 -11 -16 14 -11 16 3 44 2 62 -2
21 -5 38 -3 45 4 9 8 14 8 17 -1 3 -9 10 -10 23 -3 11 6 49 11 85 11 l66 1 -6
112 c-3 61 -10 159 -16 219 l-12 107 -71 1 c-283 4 -1279 3 -1398 -1z m-158
-200 c0 -5 -7 -10 -15 -10 -8 0 -15 5 -15 10 0 6 7 10 15 10 8 0 15 -4 15 -10z
m26 -58 c-10 -2 -22 0 -28 6 -6 6 0 7 19 4 21 -5 23 -7 9 -10z m751 -98 c-3
-3 -12 -4 -19 -1 -8 3 -5 6 6 6 11 1 17 -2 13 -5z m321 -42 c7 -1 10 -6 7 -12
-4 -6 5 -10 19 -10 18 0 26 5 26 17 0 14 3 13 16 -5 8 -12 12 -27 9 -32 -8
-13 -145 -13 -145 -1 0 5 -10 11 -22 13 -19 3 -20 5 -7 18 13 13 49 17 97 12z
m173 -55 c-8 -8 -11 -7 -12 4 0 7 -2 25 -5 39 -3 24 -3 24 12 -4 11 -20 13
-31 5 -39z m-301 24 c0 -15 -29 -21 -101 -21 -70 0 -95 15 -36 23 64 8 137 7
137 -2z m-207 -18 c-7 -2 -19 -2 -25 0 -7 3 -2 5 12 5 14 0 19 -2 13 -5z m284
-39 c-3 -3 -12 -4 -19 -1 -8 3 -5 6 6 6 11 1 17 -2 13 -5z"/>
<path d="M1730 3740 c0 -5 7 -10 15 -10 8 0 15 5 15 10 0 6 -7 10 -15 10 -8 0
-15 -4 -15 -10z"/>
<path d="M1743 3563 c-7 -2 -13 -9 -13 -14 0 -14 45 -11 76 6 l29 15 -40 -1
c-22 0 -46 -3 -52 -6z"/>
<path d="M1723 3396 c-56 -17 -37 -30 42 -29 37 1 45 3 45 12 0 17 -54 27 -87
17z"/>
<path d="M5045 3380 c-4 -6 6 -10 22 -10 22 0 25 2 13 10 -19 12 -27 12 -35 0z"/>
<path d="M5321 3344 c0 -11 3 -14 6 -6 3 7 2 16 -1 19 -3 4 -6 -2 -5 -13z"/>
<path d="M6490 3280 c0 -5 5 -10 10 -10 6 0 10 5 10 10 0 6 -4 10 -10 10 -5 0
-10 -4 -10 -10z"/>
<path d="M5045 3252 c-17 -18 10 -22 138 -21 78 1 133 4 122 6 -11 3 -25 9
-30 14 -6 4 -17 4 -25 -1 -8 -5 -24 -7 -35 -4 -30 7 -164 12 -170 6z"/>
<path d="M5614 3251 c-15 -15 5 -21 72 -21 56 0 75 3 71 13 -2 8 -26 12 -71
12 -37 0 -70 -2 -72 -4z"/>
<path d="M5463 3233 c15 -2 37 -2 50 0 12 2 0 4 -28 4 -27 0 -38 -2 -22 -4z"/>
<path d="M6556 3231 c-3 -5 0 -11 8 -14 15 -6 26 1 26 15 0 11 -27 10 -34 -1z"/>
<path d="M5691 3071 c-9 -6 -3 -10 20 -13 43 -7 71 2 43 13 -26 10 -46 10 -63
0z"/>
<path d="M355 2959 c-4 -6 -5 -12 -4 -13 10 -8 99 -12 99 -5 0 5 -12 9 -26 9
-14 0 -34 5 -44 10 -13 7 -21 7 -25 -1z"/>
<path d="M510 2920 c0 -5 7 -10 15 -10 8 0 15 5 15 10 0 6 -7 10 -15 10 -8 0
-15 -4 -15 -10z"/>
<path d="M1128 2903 c6 -2 18 -2 25 0 6 3 1 5 -13 5 -14 0 -19 -2 -12 -5z"/>
<path d="M1388 2903 c7 -3 16 -2 19 1 4 3 -2 6 -13 5 -11 0 -14 -3 -6 -6z"/>
<path d="M4665 2751 c-8 -15 6 -18 55 -15 25 2 49 3 53 3 5 1 5 6 2 11 -8 13
-102 13 -110 1z"/>
<path d="M5978 2743 c-34 -9 -20 -33 20 -33 36 0 36 -1 12 -13 -13 -7 -30 -24
-37 -37 -12 -24 -11 -25 30 -32 23 -3 73 -7 110 -7 43 -1 66 -5 62 -11 -3 -5
-2 -10 4 -10 5 0 11 6 14 13 3 9 9 9 29 -2 30 -15 83 -7 111 17 14 13 37 16
102 14 91 -2 86 -5 100 64 l6 32 -250 1 c-138 0 -260 2 -273 5 -13 2 -31 2
-40 -1z m393 -45 c-13 -4 -27 -5 -33 -2 -16 10 11 22 35 16 20 -5 20 -5 -2
-14z m-287 -3 c-25 -19 -34 -19 -34 0 0 10 10 15 27 15 26 0 26 -1 7 -15z"/>
<path d="M4657 2654 c-4 -4 -4 -10 -2 -14 6 -10 45 0 45 11 0 10 -33 12 -43 3z"/>
<path d="M5555 2640 c-3 -5 -1 -10 4 -10 6 0 11 5 11 10 0 6 -2 10 -4 10 -3 0
-8 -4 -11 -10z"/>
<path d="M5895 2639 c-10 -15 1 -22 24 -14 12 3 19 11 16 16 -8 12 -32 11 -40
-2z"/>
<path d="M5882 2585 c-14 -16 -9 -18 26 -9 12 4 22 10 22 15 0 14 -34 10 -48
-6z"/>
<path d="M5956 2566 c3 -9 11 -16 16 -16 13 0 5 23 -10 28 -7 2 -10 -2 -6 -12z"/>
<path d="M4833 1063 c-28 -5 -31 -33 -4 -33 10 0 21 9 24 20 3 11 4 19 4 19
-1 -1 -12 -4 -24 -6z"/>
<path d="M5206 930 c15 -22 33 -40 40 -40 8 0 14 -6 14 -14 0 -15 56 -33 67
-22 4 3 1 6 -6 6 -7 0 -10 4 -6 10 7 11 -25 50 -42 50 -7 0 -13 5 -13 11 0 6
-7 8 -16 5 -12 -5 -15 -2 -10 11 4 10 4 14 1 11 -4 -4 -18 -3 -31 2 l-24 9 26
-39z"/>
<path d="M2054 939 c-3 -6 -1 -16 5 -22 8 -8 11 -5 11 11 0 24 -5 28 -16 11z"/>
<path d="M4770 826 c0 -2 7 -9 15 -16 13 -11 14 -10 9 4 -5 14 -24 23 -24 12z"/>
<path d="M5148 763 c7 -3 16 -2 19 1 4 3 -2 6 -13 5 -11 0 -14 -3 -6 -6z"/>
</g>
</svg>
